<svg version="1.0" xmlns="http://www.w3.org/2000/svg" viewBox="0 0 600 362"
 preserveAspectRatio="xMidYMid meet">
    <defs>
        <linearGradient id="myGradient" x1="0%" y1="0%" x2="100%" y2="0%">
            <stop offset="0%" style="stop-color:#fe32ca;" />
            <stop offset="50%" style="stop-color:#f50c50;" />
            <stop offset="100%" style="stop-color:#830fee;" />
        </linearGradient>
    </defs>
<g transform="translate(0,362) scale(0.1,-0.1)"
fill="url(#myGradient)" stroke="none">
<path d="M1381 3404 c-92 -19 -158 -55 -235 -126 -108 -98 -203 -258 -241
-408 -23 -90 -24 -225 -2 -247 15 -16 18 -15 38 3 12 10 32 42 46 69 110 217
218 325 328 325 126 0 236 -143 252 -325 l6 -73 -104 -109 c-57 -59 -108 -110
-112 -112 -5 -2 -24 -17 -43 -34 -66 -57 -27 -93 91 -81 52 5 197 34 248 50
15 5 17 -4 17 -100 0 -102 -1 -106 -27 -132 -16 -14 -109 -65 -208 -114 -99
-48 -199 -102 -221 -118 -49 -36 -107 -112 -279 -367 -165 -246 -287 -416
-459 -645 -169 -224 -196 -266 -196 -301 0 -21 7 -29 30 -38 41 -14 82 -5 155
33 84 44 188 150 367 376 85 107 163 202 174 210 10 8 14 8 8 2 -6 -8 -9 -34
-6 -62 4 -42 0 -56 -31 -107 -71 -116 -409 -546 -571 -726 -74 -83 -136 -173
-136 -196 0 -47 72 -66 133 -35 81 41 246 199 439 419 82 94 159 181 171 195
26 28 304 361 523 625 77 94 184 226 239 295 54 69 105 132 113 140 13 13 13
12 1 -10 -32 -63 -168 -284 -227 -370 -223 -323 -606 -789 -955 -1162 l-138
-148 630 0 630 0 3 318 c3 340 6 357 52 350 42 -6 46 -36 46 -360 l0 -308 205
0 205 0 0 434 c0 395 2 436 17 451 54 54 248 -42 961 -478 51 -31 95 -57 97
-57 3 0 31 -18 62 -40 32 -22 62 -40 66 -40 5 0 23 -11 41 -25 17 -13 80 -49
139 -80 128 -66 177 -72 219 -28 26 28 26 29 32 248 3 121 7 509 8 862 1 353
4 640 6 638 2 -2 20 4 40 12 42 17 202 19 234 2 10 -6 47 -13 82 -16 50 -4 70
-1 102 15 22 11 46 28 54 37 7 9 47 32 89 51 42 19 82 42 88 51 7 9 36 26 64
37 66 27 78 53 43 95 l-25 30 573 288 c375 188 573 293 573 303 0 31 -44 19
-175 -46 -190 -94 -801 -385 -887 -423 -84 -36 -113 -39 -113 -12 0 16 -6 19
-30 16 -16 -2 -37 -8 -47 -13 -19 -9 -110 -8 -228 3 -70 6 -71 6 -162 -43 -50
-27 -110 -65 -134 -85 -23 -20 -63 -47 -88 -59 -25 -12 -48 -25 -51 -29 -3 -4
-21 -11 -40 -16 l-35 -9 -3 -297 c-2 -244 -5 -297 -16 -297 -8 0 -17 7 -20 16
-3 9 -6 139 -6 291 0 258 -1 275 -17 267 -132 -57 -466 -151 -646 -180 -150
-24 -536 -29 -692 -9 -184 25 -377 79 -410 115 -19 21 -16 57 11 142 l15 46
104 4 c65 2 109 8 116 15 10 10 25 137 28 236 1 12 9 17 30 17 72 0 78 27 26
113 -57 94 -56 97 22 137 144 74 303 197 303 235 0 49 -116 58 -298 24 l-114
-22 -68 69 c-106 109 -172 169 -210 195 -19 13 -37 26 -40 30 -3 3 -38 28 -78
54 -195 125 -388 169 -571 129z"/>
</g>
</svg>
