<svg version="1.0" xmlns="http://www.w3.org/2000/svg" viewBox="0 0 600 600"
 preserveAspectRatio="xMidYMid meet">
    <defs>
        <linearGradient id="myGradient" x1="0%" y1="0%" x2="100%" y2="0%">
            <stop offset="0%" style="stop-color:#fe32ca;" />
            <stop offset="50%" style="stop-color:#f50c50;" />
            <stop offset="100%" style="stop-color:#830fee;" />
        </linearGradient>
    </defs>
<g transform="translate(0,600) scale(0.1,-0.1)"
   fill="url(#myGradient)"  stroke="none">
<path d="M1381 5784 c-92 -19 -158 -55 -235 -126 -108 -98 -203 -258 -241
-408 -23 -90 -24 -225 -2 -247 15 -16 18 -15 38 3 12 10 32 42 46 69 110 217
218 325 328 325 126 0 236 -143 252 -325 l6 -73 -104 -109 c-57 -59 -108 -110
-112 -112 -5 -2 -24 -17 -43 -34 -66 -57 -27 -93 91 -81 52 5 197 34 248 50
15 5 17 -4 17 -100 0 -102 -1 -106 -27 -132 -16 -14 -109 -65 -208 -114 -99
-48 -199 -102 -221 -118 -49 -36 -107 -112 -279 -367 -165 -246 -287 -416
-459 -645 -169 -224 -196 -266 -196 -301 0 -21 7 -29 30 -38 41 -14 82 -5 155
33 84 44 188 150 367 376 85 107 163 202 174 210 10 8 14 8 8 2 -6 -8 -9 -34
-6 -62 4 -42 0 -56 -31 -107 -71 -116 -409 -546 -571 -726 -74 -83 -136 -173
-136 -196 0 -21 40 -61 61 -61 79 1 259 158 511 445 82 94 159 181 171 195 26
28 304 361 523 625 77 94 184 226 239 295 54 69 105 132 113 140 13 13 13 12
1 -10 -66 -130 -230 -381 -367 -565 -291 -388 -631 -782 -1009 -1166 -223
-227 -236 -245 -195 -282 36 -32 101 -18 200 44 17 11 24 11 34 1 22 -22 -27
-102 -141 -227 -101 -111 -111 -129 -111 -207 0 -66 1 -69 33 -88 65 -40 133
-23 222 56 36 31 138 141 226 245 88 103 167 190 175 193 32 12 44 6 44 -22 0
-34 -34 -84 -138 -202 -41 -47 -86 -102 -99 -122 -33 -49 -26 -82 21 -98 46
-15 104 1 172 45 51 33 269 269 411 445 37 46 93 111 123 143 l55 58 3 -47 c2
-36 -3 -55 -22 -84 -50 -76 -332 -439 -430 -553 -56 -65 -128 -150 -161 -190
-33 -40 -107 -121 -166 -182 -58 -60 -129 -138 -157 -173 l-52 -63 6 -72 c7
-76 18 -105 57 -148 28 -32 58 -38 129 -29 101 14 140 41 300 203 82 84 161
168 174 187 13 19 37 51 52 71 15 19 68 90 119 158 50 67 94 118 96 113 3 -4
2 -14 -4 -22 -5 -8 -9 -25 -9 -36 0 -12 -14 -36 -30 -54 -17 -18 -30 -34 -30
-37 0 -6 -62 -97 -70 -103 -4 -3 -14 -18 -23 -35 -15 -30 -27 -46 -86 -115
-17 -19 -59 -69 -93 -110 -35 -41 -97 -109 -139 -151 -46 -47 -78 -87 -81
-104 -3 -15 -2 -59 3 -96 7 -61 13 -73 49 -109 l40 -40 85 9 c113 13 163 37
214 101 23 28 41 56 41 60 0 5 24 37 53 73 28 35 74 110 102 166 27 55 55 101
62 101 21 0 16 -14 -52 -150 -52 -104 -65 -139 -65 -176 0 -63 18 -119 48
-149 48 -48 167 -24 226 45 14 18 26 35 26 40 0 5 6 15 14 23 8 8 23 32 32 53
17 36 19 114 24 1185 5 1230 3 1184 54 1177 52 -7 50 40 36 -1381 l-12 -1319
46 -47 c46 -46 47 -46 114 -46 49 0 76 6 102 20 43 25 96 102 110 158 6 23 16
51 22 62 29 51 37 385 38 1572 0 1095 1 1183 17 1198 54 54 248 -42 961 -478
51 -31 95 -57 97 -57 3 0 31 -18 62 -40 32 -22 62 -40 66 -40 5 0 23 -11 41
-25 17 -13 80 -49 139 -80 128 -66 177 -72 219 -28 26 28 26 29 32 248 3 121
7 509 8 862 1 353 4 640 6 638 2 -2 20 4 40 12 42 17 202 19 234 2 10 -6 47
-13 82 -16 50 -4 70 -1 102 15 22 11 46 28 54 37 7 9 47 32 89 51 42 19 82 42
88 51 7 9 36 26 64 37 66 27 78 53 43 95 l-25 30 573 288 c375 188 573 293
573 303 0 31 -44 19 -175 -46 -190 -94 -801 -385 -887 -423 -84 -36 -113 -39
-113 -12 0 16 -6 19 -30 16 -16 -2 -37 -8 -47 -13 -19 -9 -110 -8 -228 3 -70
6 -71 6 -162 -43 -50 -27 -110 -65 -134 -85 -23 -20 -63 -47 -88 -59 -25 -12
-48 -25 -51 -29 -3 -4 -21 -11 -40 -16 l-35 -9 -3 -297 c-2 -244 -5 -297 -16
-297 -8 0 -17 7 -20 16 -3 9 -6 139 -6 291 0 258 -1 275 -17 267 -132 -57
-466 -151 -646 -180 -150 -24 -536 -29 -692 -9 -184 25 -377 79 -410 115 -19
21 -16 57 11 142 l15 46 104 4 c65 2 109 8 116 15 10 10 25 137 28 236 1 12 9
17 30 17 72 0 78 27 26 113 -57 94 -56 97 22 137 144 74 303 197 303 235 0 49
-116 58 -298 24 l-114 -22 -68 69 c-106 109 -172 169 -210 195 -19 13 -37 26
-40 30 -3 3 -38 28 -78 54 -195 125 -388 169 -571 129z"/>
</g>
</svg>
